<?xml version="1.0" encoding="UTF-8" standalone="no"?>
<!-- Created with Inkscape (http://www.inkscape.org/) -->

<svg
   width="48.08436mm"
   height="40.381649mm"
   viewBox="-6.80872 0 48.08436 40.38165"
   version="1.1"
   id="svg1"
   xml:space="preserve"
   inkscape:version="1.4.4 (dcaf3e7d9e, 2026-05-05)"
   sodipodi:docname="info-overlapping-single-marker.svg"
   xmlns:inkscape="http://www.inkscape.org/namespaces/inkscape"
   xmlns:sodipodi="http://sodipodi.sourceforge.net/DTD/sodipodi-0.dtd"
   xmlns="http://www.w3.org/2000/svg"
   xmlns:svg="http://www.w3.org/2000/svg"><sodipodi:namedview
     id="namedview1"
     pagecolor="#ffffff"
     bordercolor="#000000"
     borderopacity="0.25"
     inkscape:showpageshadow="2"
     inkscape:pageopacity="0.0"
     inkscape:pagecheckerboard="0"
     inkscape:deskcolor="#d1d1d1"
     inkscape:document-units="mm"
     inkscape:zoom="2.1006312"
     inkscape:cx="154.7154"
     inkscape:cy="87.830741"
     inkscape:window-width="2560"
     inkscape:window-height="1363"
     inkscape:window-x="0"
     inkscape:window-y="0"
     inkscape:window-maximized="1"
     inkscape:current-layer="layer1"
     showguides="false" /><defs
     id="defs1"><style
       id="style1">.cls-1{fill:none;stroke:#020202;stroke-miterlimit:10;stroke-width:1.91px;}</style></defs><g
     inkscape:label="Layer 1"
     inkscape:groupmode="layer"
     id="layer1"
     transform="translate(-76.453247,-49.633641)"><circle
       style="opacity:0.837064;fill:#0f172a;fill-opacity:1;stroke:#8f8f8f;stroke-width:1.32341;stroke-linecap:round;stroke-linejoin:round;stroke-dasharray:none;stroke-opacity:1"
       id="path1-2-0"
       cx="93.686707"
       cy="72.78183"
       r="16.571754" /><g
       id="g2"
       transform="translate(0.12810509,-0.00186193)"><circle
         style="opacity:0.837064;fill:none;fill-opacity:1;stroke:#f59e0b;stroke-width:1.15242;stroke-linecap:round;stroke-linejoin:round;stroke-dasharray:none;stroke-opacity:1"
         id="path1-2"
         cx="93.558601"
         cy="72.783691"
         r="14.43067" /><g
         style="fill:none"
         id="g1"
         transform="matrix(0.80385896,0,0,0.80385896,83.912293,63.137392)"><path
           fill-rule="evenodd"
           clip-rule="evenodd"
           d="M 6,1 C 6.55228,1 7,1.44772 7,2 V 4 H 17 V 2 c 0,-0.55228 0.4477,-1 1,-1 0.5523,0 1,0.44772 1,1 v 2 h 1 c 1.6569,0 3,1.34315 3,3 v 4 c 0,1.6569 -1.3431,3 -3,3 h -1 v 8 c 0,0.5523 -0.4477,1 -1,1 -0.5523,0 -1,-0.4477 -1,-1 V 14 H 7 v 8 C 7,22.5523 6.55228,23 6,23 5.44772,23 5,22.5523 5,22 V 14 H 4 C 2.34315,14 1,12.6569 1,11 V 7 C 1,5.34315 2.34315,4 4,4 H 5 V 2 C 5,1.44772 5.44772,1 6,1 Z M 3,7 C 3,6.44772 3.44772,6 4,6 H 6.38197 L 3.4608,11.8423 C 3.18365,11.6645 3,11.3537 3,11 Z m 2.61803,5 H 7.38197 L 10.382,6 H 8.61803 Z M 12.618,6 9.61803,12 H 11.382 l 3,-6 z m 4,0 -3,6 h 1.764 l 3,-6 z M 20.5392,6.15767 17.618,12 H 20 c 0.5523,0 1,-0.4477 1,-1 V 7 C 21,6.64628 20.8163,6.33545 20.5392,6.15767 Z"
           fill="#0f0f0f"
           id="path1-0"
           style="fill:#f59e0b;fill-opacity:1" /></g></g><circle
       style="opacity:1;fill:#ef4444;fill-opacity:1;stroke:#000000;stroke-width:0.26458333;stroke-linecap:round;stroke-linejoin:round;stroke-dasharray:none;stroke-opacity:1"
       id="path1-2-0-6"
       cx="108.37124"
       cy="58.991287"
       r="9.357646" /><text
       xml:space="preserve"
       style="font-size:11.6911px;font-family:'iMWritingQuat Nerd Font Propo';-inkscape-font-specification:'iMWritingQuat Nerd Font Propo, Normal';writing-mode:lr-tb;direction:ltr;opacity:1;fill:#ffffff;fill-opacity:1;stroke:none;stroke-width:0.0608909;stroke-linecap:round;stroke-linejoin:round;stroke-opacity:1"
       x="104.90484"
       y="63.141621"
       id="text2"><tspan
         sodipodi:role="line"
         id="tspan2"
         style="fill:#ffffff;fill-opacity:1;stroke-width:0.0608909"
         x="104.90484"
         y="63.141621">2</tspan></text></g></svg>
