<?xml version="1.0" encoding="UTF-8" standalone="no"?>
<!-- Created with Inkscape (http://www.inkscape.org/) -->

<svg
   width="52.652084mm"
   height="52.652084mm"
   viewBox="0 0 52.652084 52.652084"
   version="1.1"
   id="svg1"
   inkscape:version="1.4.4 (dcaf3e7d9e, 2026-05-05)"
   sodipodi:docname="Line_5_Legend.svg"
   xmlns:inkscape="http://www.inkscape.org/namespaces/inkscape"
   xmlns:sodipodi="http://sodipodi.sourceforge.net/DTD/sodipodi-0.dtd"
   xmlns="http://www.w3.org/2000/svg"
   xmlns:svg="http://www.w3.org/2000/svg">
  <sodipodi:namedview
     id="namedview1"
     pagecolor="#ffffff"
     bordercolor="#000000"
     borderopacity="0.25"
     inkscape:showpageshadow="2"
     inkscape:pageopacity="0.0"
     inkscape:pagecheckerboard="0"
     inkscape:deskcolor="#d1d1d1"
     inkscape:document-units="mm"
     inkscape:zoom="1.0307169"
     inkscape:cx="94.109256"
     inkscape:cy="258.5579"
     inkscape:window-width="2560"
     inkscape:window-height="1363"
     inkscape:window-x="0"
     inkscape:window-y="0"
     inkscape:window-maximized="1"
     inkscape:current-layer="layer1" />
  <defs
     id="defs1" />
  <g
     inkscape:label="Layer 1"
     inkscape:groupmode="layer"
     id="layer1"
     transform="translate(-80.168743,-80.168748)">
    <g
       id="G-02-A105-Line_5.cdr_2"
       style="clip-rule:evenodd;fill-rule:evenodd;image-rendering:optimizeQuality;shape-rendering:geometricPrecision;text-rendering:geometricPrecision"
       transform="matrix(0.26458333,0,0,0.26458333,-203.72917,-372.53333)">
   <path
   class="fil3"
   d="m 1172,1711 c 55,0 100,45 100,99 0,55 -45,100 -100,100 -54,0 -99,-45 -99,-100 0,-54 45,-99 99,-99 z"
   id="path1469"
   style="fill:#ffffff" />

   <path
   class="fil0"
   d="m 1172,1723 c 48,0 87,39 87,87 0,49 -39,87 -87,87 -48,0 -87,-38 -87,-87 0,-48 39,-87 87,-87 z"
   id="path1470"
   style="fill:#eb8738" />

   <path
   class="fil7"
   d="m 1139,1831 h 18 c 0,4 1,7 4,9 2,3 5,4 9,4 5,0 9,-2 12,-5 2,-3 4,-7 4,-12 0,-5 -2,-9 -4,-12 -3,-3 -7,-5 -12,-5 -2,0 -5,1 -7,2 -2,1 -3,3 -5,5 l -16,-1 6,-50 h 52 v 16 h -39 l -3,18 c 2,-1 5,-2 7,-3 3,-1 6,-1 9,-1 9,0 16,2 22,8 6,6 9,13 9,22 0,10 -4,18 -10,24 -6,5 -14,8 -25,8 -9,0 -17,-2 -22,-7 -6,-5 -9,-11 -9,-20 z"
   id="path1471"
   style="fill:#ffffff;fill-rule:nonzero" />

  </g>
  </g>
</svg>
