<svg width="800px" height="800px" viewBox="0 0 24 24" fill="none" xmlns="http://www.w3.org/2000/svg">
  <g stroke="#ffffff" stroke-width="3.5" stroke-linecap="round" stroke-linejoin="round">
    <path d="M13 3H18C19.1046 3 20 3.89543 20 5V19C20 20.1046 19.1046 21 18 21H13"/>
    <path d="M16 18H17"/>
    <path d="M4 12H15"/>
    <path d="M11 8L15 12L11 16"/>
  </g>
  <path d="M13 3H18C19.1046 3 20 3.89543 20 5V19C20 20.1046 19.1046 21 18 21H13" stroke="#475569" stroke-width="2" stroke-linecap="round" stroke-linejoin="round"/>
  <path d="M16 18H17" stroke="#475569" stroke-width="2" stroke-linecap="round" stroke-linejoin="round"/>
  <path d="M4 12H15" stroke="#475569" stroke-width="2" stroke-linecap="round" stroke-linejoin="round"/>
  <path d="M11 8L15 12L11 16" stroke="#475569" stroke-width="2" stroke-linecap="round" stroke-linejoin="round"/>
</svg>
